<!-- icon666.com - MILLIONS vector ICONS FREE --><svg version="1.1" id="Capa_1" xmlns="http://www.w3.org/2000/svg" xmlns:xlink="http://www.w3.org/1999/xlink" x="0px" y="0px" viewBox="0 0 512 512" style="enable-background:new 0 0 512 512;" xml:space="preserve"><g><g><path d="M413.126,275.429c-0.097-0.339-0.256-0.64-0.393-0.96c-3.435-7.865-7.428-15.506-12.065-22.815 c-27.654-43.592-53.304-90.846-76.237-140.454l-44.292-95.808C275.747,5.9,266.498,0,256.002,0 c-10.496,0-19.746,5.9-24.137,15.396l-35.629,77.071c-22.554,48.779-50.163,105.658-83.942,157.692 c-20.654,31.817-29.821,68.821-26.508,107.017c6.942,80.112,70.225,144.758,150.475,153.717 c6.558,0.733,13.204,1.108,19.746,1.108c0.008,0,0.008,0,0.012,0c45.621,0,88.525-17.667,120.792-49.746 c32.287-32.092,50.067-74.763,50.067-120.15C426.877,319.003,422.123,296.378,413.126,275.429z M126.61,259.45 c34.362-52.933,62.308-110.496,85.117-159.825l35.629-77.067c2.354-5.096,7.213-5.492,8.646-5.492 c1.433,0,6.292,0.396,8.646,5.488l44.292,95.804c23.25,50.292,49.263,98.217,77.321,142.438c0.369,0.582,0.681,1.192,1.041,1.778 c-32.248-9.032-68.816-8.624-100.024,1.997c-13.946,4.8-25.092,11.688-35.875,18.346c-10.587,6.542-20.588,12.721-32.921,16.871 c-34.518,11.537-76.27,9.189-108.617-5.479C113.898,282.137,119.474,270.443,126.61,259.45z M364.777,450.15 c-29.05,28.879-67.671,44.783-108.758,44.783c-0.004,0-0.008,0-0.008,0c-5.912,0-11.921-0.337-17.858-1 c-72.196-8.058-129.125-66.196-135.367-138.233c-1.314-15.159-0.319-30.074,2.654-44.5c20.138,8.673,42.869,13.137,65.671,13.137 c17.983,0,36.008-2.758,52.796-8.367c14.213-4.783,25.525-11.775,36.467-18.533c10.446-6.454,20.313-12.55,32.429-16.717 c33.262-11.316,73.338-9.806,105.547,3.636c7.484,18.216,11.461,37.777,11.461,57.747 C409.81,382.913,393.818,421.288,364.777,450.15z"></path></g></g></svg>